<?xml version="1.0" standalone="no"?>
<!DOCTYPE svg PUBLIC "-//W3C//DTD SVG 20010904//EN"
 "http://www.w3.org/TR/2001/REC-SVG-20010904/DTD/svg10.dtd">
<svg version="1.0" xmlns="http://www.w3.org/2000/svg"
 width="500.000000pt" height="285.000000pt" viewBox="0 0 500.000000 285.000000"
 preserveAspectRatio="xMidYMid meet">

<g transform="translate(0.000000,285.000000) scale(0.100000,-0.100000)"
fill="#000000" stroke="none">
<path d="M2070 1150 l0 -660 770 0 770 0 0 660 0 660 -770 0 -770 0 0 -660z
m1520 -10 l0 -630 -750 0 -750 0 0 630 0 630 750 0 750 0 0 -630z"/>
<path d="M2310 1480 c0 -133 1 -140 20 -140 19 0 20 7 20 120 l0 120 150 0
c143 0 150 1 150 20 0 19 -7 20 -170 20 l-170 0 0 -140z"/>
<path d="M3030 1600 c0 -19 7 -20 160 -20 l160 0 0 -130 0 -130 25 0 25 0 0
150 0 150 -185 0 c-178 0 -185 -1 -185 -20z"/>
<path d="M2820 1570 c0 -5 -13 -10 -30 -10 -23 0 -30 -5 -30 -19 0 -16 -10
-21 -55 -26 -45 -6 -55 -11 -55 -26 0 -12 -7 -19 -20 -19 -13 0 -20 -7 -20
-20 0 -16 -7 -20 -35 -20 -19 0 -35 -4 -35 -10 0 -5 -9 -10 -20 -10 -13 0 -20
-7 -20 -20 0 -16 -7 -20 -35 -20 l-35 0 0 -240 0 -240 35 0 c28 0 35 -4 35
-20 0 -13 7 -20 20 -20 11 0 20 -4 20 -10 0 -5 16 -10 35 -10 28 0 35 -4 35
-20 0 -13 7 -20 20 -20 13 0 20 -7 20 -19 0 -15 10 -20 55 -26 45 -5 55 -10
55 -26 0 -14 7 -19 30 -19 23 0 30 -4 30 -20 0 -13 7 -20 20 -20 13 0 20 7 20
20 0 16 7 20 35 20 28 0 35 4 35 20 0 16 9 21 50 26 40 5 50 10 50 25 0 14 7
19 25 19 18 0 25 5 25 20 0 16 7 20 30 20 17 0 30 5 30 10 0 6 9 10 20 10 13
0 20 7 20 20 0 16 7 20 35 20 l35 0 0 240 0 240 -35 0 c-28 0 -35 4 -35 20 0
13 -7 20 -20 20 -11 0 -20 5 -20 10 0 6 -13 10 -30 10 -23 0 -30 4 -30 20 0
15 -7 20 -25 20 -18 0 -25 5 -25 19 0 15 -10 20 -50 25 -41 5 -50 10 -50 26 0
16 -7 20 -35 20 -19 0 -35 5 -35 10 0 6 -9 10 -20 10 -11 0 -20 -4 -20 -10z
m-40 -306 c0 -22 -25 -44 -49 -44 -19 0 -21 -6 -21 -65 0 -63 1 -65 25 -65 18
0 25 5 25 20 0 16 7 20 30 20 23 0 30 4 30 20 0 13 7 20 20 20 11 0 20 5 20
10 0 6 16 10 35 10 19 0 35 -4 35 -10 0 -5 -7 -10 -15 -10 -11 0 -15 -11 -15
-40 0 -29 4 -40 15 -40 8 0 15 -4 15 -10 0 -5 9 -10 20 -10 11 0 20 -7 20 -15
0 -8 9 -15 20 -15 13 0 20 -7 20 -20 0 -16 7 -20 35 -20 19 0 35 -4 35 -10 0
-6 -50 -10 -130 -10 -80 0 -130 4 -130 10 0 6 18 10 40 10 39 0 40 1 40 35 0
28 -4 35 -20 35 -11 0 -20 5 -20 10 0 6 -22 10 -50 10 -27 0 -50 -4 -50 -10 0
-5 -11 -10 -25 -10 -16 0 -25 -6 -25 -15 0 -9 9 -15 25 -15 18 0 25 -5 25 -20
0 -11 5 -20 10 -20 6 0 10 -4 10 -10 0 -6 -43 -10 -110 -10 -67 0 -110 4 -110
10 0 6 20 10 45 10 l45 0 0 120 0 120 -45 0 c-38 0 -45 3 -45 20 0 19 7 20
110 20 93 0 110 -2 110 -16z m300 -4 c0 -16 -7 -20 -35 -20 -19 0 -35 -4 -35
-10 0 -5 -18 -10 -40 -10 -22 0 -40 5 -40 10 0 6 -16 10 -35 10 -28 0 -35 4
-35 20 0 19 7 20 110 20 103 0 110 -1 110 -20z"/>
<path d="M3350 820 l0 -160 -170 0 c-107 0 -170 -4 -170 -10 0 -6 72 -10 195
-10 l195 0 0 170 0 170 -25 0 -25 0 0 -160z"/>
<path d="M2310 790 l0 -150 200 0 c127 0 200 4 200 10 0 6 -67 10 -180 10
l-180 0 0 140 c0 133 -1 140 -20 140 -19 0 -20 -7 -20 -150z"/>
</g>
</svg>
